<svg width="256" height="256" xmlns="http://www.w3.org/2000/svg">
    <g fill="none" fill-rule="evenodd">
        <path d="M90.643 97.44s-4.185 7.757-6.887 16.582c-2.703 8.824-2.737 10.513-3.917 18.698-1.18 8.185-.941 8.211-1.191 16.743-.25 8.531-.385 9.812.199 17.11.583 7.299.395 6.505 2.316 14.37 1.92 7.867 4.894 15.16 4.894 15.16s2.525 6.113 8.627 10.001c6.102 3.89 13.338 3.998 13.338 3.998s8.697-1.815 15-5.816c6.302-4.002 5.768-4.801 11.71-11.143 5.941-6.341 6.433-6.967 11.46-13.589 5.029-6.621 4.982-6.303 9.562-14.097 4.58-7.793 5.48-9.97 8.447-16.545 2.968-6.576 4.245-10.518 5.262-13.832 1.016-3.315 1.171-7.152 1.171-7.152l6.043 3.86s4.973-1.752 7.349-7.375c2.375-5.623 2.626-6.372 1.78-14.235-.844-7.863-.785-8.39-4.926-15.05-4.142-6.661-6.107-7.067-10.667-10.03-4.561-2.961-3.989-2.238-9.828-3.283-5.84-1.045-11.804-.587-11.804-.587l6.589-12.584 8.826-11.27 5.677-5.34-1.392-4.69-4.332.101-11.205 11.582-7.267 9.53-4.82 9.236s-3.888-4.794-8.396-7.81c-4.508-3.015-5.254-3.033-9.55-4.195-4.296-1.162-3.113-1.327-8.768-.76-5.655.566-7.521 1.292-11.255 2.767-3.733 1.475-3.895 1.904-7.173 4.512-3.278 2.609-4.107 3.507-6.231 6.153-2.125 2.646-2.54 3.635-3.717 6.239-1.176 2.604-1.675 2.902-1.733 5.823-.058 2.922.778 4.908 1.5 5.913.723 1.005 5.309 1.005 5.309 1.005z" stroke="#979797" fill="#000"/>
        <path d="M97.4 96.31s-4.981 6.523-8.491 16.386c-3.51 9.862-4.865 21.143-4.865 21.143s-1.057 7.613-1.178 16.826c-.122 9.214-.433 9.227.714 18.455 1.147 9.228 2.148 12.589 3.83 18.112 1.683 5.523 4.79 10.185 4.79 10.185s3.491 5.343 8.21 7.325c4.72 1.981 6.69 1.61 10.285.44 3.594-1.17 10.828-5.365 16.947-10.386 6.12-5.02 11.044-12.58 11.044-12.58s7.887-10.361 12.657-18.117c4.77-7.756 5.593-9.93 8.637-16.503 3.043-6.573 4.245-8.834 5.366-13.738 1.12-4.904 1.12-10.98 1.12-10.98l-8.993-10.091-8.248 9.205s-6.31 4.725-11.26 5.854c-4.95 1.129-5.917.617-10.26-.946s-5.084-1.915-8.154-5.68c-3.071-3.765-4.529-9.87-4.529-9.87s-.717-10.799-.777-13.16c-.06-2.36.322-4.717.322-4.717L97.4 96.31z" fill="#FFF"/>
    </g>
</svg>
