<svg width="256" height="256" xmlns="http://www.w3.org/2000/svg">
    <g fill-rule="evenodd">
        <path d="M230.541 122.006A3.995 3.995 0 0 0 226.55 118h-82.615c-8.84 0-21.248 4.893-27.705 10.919l-4.044 3.774L68.28 167.59c-5.186 4.122-14.773 7.464-21.39 7.464H29.396a4.003 4.003 0 0 0-4.007 4.007v8.985a4 4 0 0 0 3.995 4.008h23.508c8.835 0 21.565-4.504 28.435-10.062l47.526-38.446c5.15-4.167 14.692-7.487 21.33-7.415l76.36.827a3.947 3.947 0 0 0 3.998-3.963v-10.988z"/>
        <path d="M230.541 133.047a3.995 3.995 0 0 1-3.991 4.006h-82.615c-8.84 0-21.248-4.893-27.705-10.92l-4.044-3.774L68.28 87.463C63.093 83.341 53.506 80 46.89 80H29.396a4.003 4.003 0 0 1-4.007-4.007v-8.986A4 4 0 0 1 29.384 63h23.508c8.835 0 21.565 4.504 28.435 10.062l47.526 38.446c5.15 4.167 14.692 7.487 21.33 7.415l76.36-.827a3.947 3.947 0 0 1 3.998 3.963v10.988z"/>
    </g>
</svg>
