<svg width="256" height="256" xmlns="http://www.w3.org/2000/svg">
    <g fill-rule="evenodd">
        <path d="M25 131.11c0 2.206 1.798 5.995 4.009 5.995l16.717-.582c6.62-.23 16.016 3.13 20.99 7.508l42.358 37.28c10.452 14.246 27.416 14.253 37.89.015l42.484-36.417c5.028-4.31 14.471-7.804 21.105-7.804h16.443c2.211 0 4.004-3.788 4.004-5.996v-8.007c0-2.207-1.785-4.997-3.993-4.997l-20.696 1.129c-8.825.481-21.169 5.804-27.573 11.89l-41.824 39.754c-4.807 4.569-12.578 4.561-17.37-.03l-42.47-40.677c-6.38-6.111-18.725-11.066-27.547-11.066H28.995A3.995 3.995 0 0 0 25 123.102v8.007z"/>
        <path d="M25 124.996c0-2.207 1.798-5.996 4.009-5.996l16.717.582c6.62.231 16.016-3.13 20.99-7.508l42.358-37.28c10.452-14.246 27.416-14.252 37.89-.015l42.484 36.417c5.028 4.31 14.471 7.804 21.105 7.804h16.443c2.211 0 4.004 3.789 4.004 5.996v8.008c0 2.207-1.785 4.996-3.993 4.996l-20.696-1.129c-8.825-.48-21.169-5.804-27.573-11.89l-41.824-38.754c-4.807-4.568-12.578-4.561-17.37.03l-42.47 39.677C70.694 132.046 58.35 137 49.527 137H28.995A3.995 3.995 0 0 1 25 133.004v-8.008z"/>
    </g>
</svg>
