<svg width="256" height="256" xmlns="http://www.w3.org/2000/svg">
    <path fill-rule="evenodd" clip-rule="evenodd" d="M25 128c0-8.667 1.71-16.95 5.13-24.85 3.42-7.9 7.996-14.7 13.73-20.4 5.733-5.7 12.573-10.25 20.52-13.65 7.946-3.4 16.278-5.1 24.995-5.1h77.25c8.717 0 17.05 1.7 24.996 5.1 7.946 3.4 14.786 7.95 20.52 13.65 5.733 5.7 10.31 12.5 13.73 20.4C229.29 111.05 231 119.333 231 128c0 8.667-1.71 16.95-5.13 24.85-3.42 7.9-7.996 14.7-13.73 20.4-5.733 5.7-12.573 10.25-20.52 13.65-7.946 3.4-16.278 5.1-24.995 5.1h-77.25c-8.717 0-17.05-1.7-24.996-5.1-7.946-3.4-14.786-7.95-20.52-13.65-5.733-5.7-10.31-12.5-13.73-20.4C26.71 144.95 25 136.667 25 128zm18-.064c0 6.508 1.36 12.72 4.08 18.634 2.72 5.914 6.397 11.03 11.032 15.349 4.634 4.318 10.125 7.744 16.472 10.279C80.93 174.733 87.596 176 94.58 176h31.47c-5.44-3.802-16.472-16.147-19.947-23.281-3.476-7.135-5.642-17.96-5.642-24.468 0-.782-.022-1.577-.044-2.397v-.001c-.166-5.999-.367-13.327 7.701-26.831 5.639-9.44 13.944-16.357 17.909-19.15h.628c2.637-1.88 1.855-1.748-.628 0H94.58c-6.985 0-13.65 1.267-19.997 3.801-6.347 2.535-11.838 5.962-16.472 10.28-4.635 4.318-8.312 9.434-11.032 15.348A44.088 44.088 0 0 0 43 127.936zm78.797 18.674C119.266 140.703 118 134.5 118 128s1.266-12.703 3.797-18.609c2.531-5.907 5.953-11.016 10.266-15.328 4.312-4.313 9.421-7.735 15.327-10.266C153.297 81.266 159.5 80 166 80s12.703 1.266 18.609 3.797c5.907 2.531 11.016 5.953 15.328 10.265 4.313 4.313 7.735 9.422 10.266 15.328C212.734 115.297 214 121.5 214 128s-1.266 12.703-3.797 18.609c-2.531 5.907-5.953 11.016-10.266 15.328-4.312 4.313-9.421 7.735-15.327 10.266C178.703 174.734 172.5 176 166 176s-12.703-1.266-18.609-3.797c-5.907-2.531-11.016-5.953-15.328-10.266-4.313-4.312-7.735-9.421-10.266-15.327z"/>
</svg>
