<svg width="256" height="256" xmlns="http://www.w3.org/2000/svg">
    <g fill="none" fill-rule="evenodd">
        <path d="M46.735 116.622c0-47.684 41.426-69.596 81.994-69.696 40.567-.1 80.92 24.207 80.92 69.292 0 45.086.004 70.408.004 70.408l-4.204 3.418-9.406.045-2.946-3.716s-.485-33.33-.485-70.36c0-37.031-27.957-52.448-64.552-52.481-36.595-.033-64.821 15.18-64.821 52.613v71.228l-3.966 3.393H51.49l-4.755-3.393v-70.75z" fill="#000"/>
        <path d="M93.584 144.868c11.228-.048 10.137 0 15.342 0s10.303 4.385 10.385 9.819c.082 5.433 0 38.77-.082 44.005-.081 5.235-4.267 9.885-10.303 9.885-6.035 0-4.906-.196-15.551-.098s-20.162-9.532-20.162-20.48.661-13.256.33-23.772c-.33-10.516 8.813-19.311 20.041-19.36zm54.189.052c5.397 0 3.968-.253 15.42-.253 11.454 0 20.303 8.673 20.303 19.444v23.847c0 11.872-9.148 20.76-20.36 20.76-11.214 0-9.847-.135-15.433-.068s-10.349-4.51-10.349-10.51.176-37.786.176-43.587c0-5.8 4.845-9.632 10.243-9.632z" fill="#000"/>
        <path d="M152.987 160.6s7.305-.213 10.402-.106c3.096.106 5.484 3.294 5.484 5.992s-.532 18.813-.532 21.468c0 2.654-2.835 5.2-5.123 5.242-2.288.043-10.124.043-10.124.043l-.107-32.639zm-64.657 5.389c0-2.806 2.84-5.786 5.587-5.786s9.965.124 9.965.124v32.65s-6.958.045-10.078.045c-3.12 0-5.38-1.85-5.38-4.918 0-3.069-.093-19.31-.093-22.115z" fill="#FFF"/>
    </g>
</svg>
