<svg width="256" height="256" xmlns="http://www.w3.org/2000/svg">
    <g fill="none" fill-rule="evenodd">
        <path d="M39.723 193.132c-.284 8.428 8.144 15.193 17.608 15.193s134.981-1.372 142.361-.813c7.38.559 15.841-6.386 15.841-10.883 0-4.497-.2-29.71 0-48.408.2-18.7-1-36.787-1-36.787.552-6.553-4.826-11.866-12-11.866H155.71c-1.662 0-3.99-.923-5.196-2.06L116.03 65.033c-.806-.76-2.347-1.382-3.45-1.39 0 0-45.312-.36-55.15-.172-9.836.187-17.992 7.822-17.992 17.327 0 9.505.567 103.907.284 112.335z" fill="#000"/>
        <path d="M57.776 82.422a1.995 1.995 0 0 1 1.973-2.027l45.114-.505c1.106-.012 2.658.594 3.466 1.354l17.935 16.859c1.611 1.515 1.123 2.745-1.085 2.748l-65.144.08a2.03 2.03 0 0 1-2.024-2.002l-.235-16.507zm4.046 109.177a2.021 2.021 0 0 1-2.006-2.014v-69.466a2.01 2.01 0 0 1 1.993-2.016l135.049-.894a2.01 2.01 0 0 1 2.018 1.977l.922 71.162a1.952 1.952 0 0 1-1.98 1.98l-135.996-.73z" fill="#FFF"/>
    </g>
</svg>
