<svg width="256" height="256" xmlns="http://www.w3.org/2000/svg">
    <path fill-rule="evenodd" clip-rule="evenodd" d="M183.427 136.897c11.578 11.362 3.954 31.242-11.729 31.004-15.682-.237-71.904-.237-87.357-.237-15.453 0-23.261-18.467-11.853-29.982 2.767-2.793 6.33-6.412 10.236-10.382 12.203-12.397 27.762-28.205 32.902-32.878 6.786-6.169 18.112-7.464 25.444 0 7.331 7.464 30.779 31.112 42.357 42.475zm-14.608 14.261c2.214.011 2.735-2.24 1.173-3.795v.001l-39.486-39.31c-1.554-1.548-4.107-1.561-5.684-.014l-39.597 39.868c-1.578 1.548-1.064 2.812 1.146 2.823l82.448.427z"/>
</svg>
