<svg width="256" height="256" xmlns="http://www.w3.org/2000/svg">
    <g>
        <path d="m 203.03711,63 c -8.835,0 -21.56359,4.5045 -28.43359,10.0625 l -47.52735,38.44531 c -3.4995,2.83099 -9.02397,5.24114 -14.28906,6.49219 -27.737163,-4e-4 -55.620475,0 -83.408204,0 -2.090096,0.005 -3.838232,1.62049 -3.989906,3.70508 -6.86e-4,3.99578 -3.58e-4,8.09302 0,11.64258 0.151679,2.08459 1.899816,3.69991 3.989909,3.70507 27.779849,-2.1e-4 55.685048,6e-4 83.408201,2.7e-4 5.26509,1.25105 10.78956,3.66098 14.28906,6.49196 l 47.52735,38.44531 c 6.87,5.558 19.59859,10.0625 28.43359,10.0625 h 23.50977 c 2.2099,-0.003 3.99846,-1.79791 3.99414,-4.00781 v -8.98437 c 0.003,-2.21456 -1.79326,-4.01049 -4.00782,-4.00782 h -17.49414 c -6.617,0 -16.20167,-3.34089 -21.38867,-7.46289 L 143.74414,132.6934 c -1.84601,-1.71299 -3.8448,-3.66594 -5.68164,-5.16797 1.97105,-1.59937 3.7619,-3.37512 5.68164,-5.16601 L 187.65039,87.462931 C 192.83739,83.340891 202.42206,80 209.03906,80 h 17.49414 c 2.21456,0.0027 4.01048,-1.793253 4.00782,-4.007812 V 67.007812 C 230.54534,64.79791 228.75678,63.003233 226.54688,63 Z"/>
    </g>
</svg>