<svg width="256" height="256" xmlns="http://www.w3.org/2000/svg">
    <g fill="none" fill-rule="evenodd">
        <path d="M128 193.901c-13.606 0-21.823 9.814-23.434 22.258C62.374 207.79 36 172.65 36 128c0-50.81 41.19-92 92-92s92 41.19 92 92c0 44.21-25.713 77.476-67.501 86.16-1.346-8.684-11.008-20.259-24.499-20.259z" fill="#000"/>
        <path d="M127.756 175.45c-16.6 0-29.661 9.166-31.756 19.178C74.568 189.702 52.687 163.28 52.687 128c0-40.149 37.205-76 75.313-76 38.108 0 74.826 35.851 74.826 76 0 23.164-11.485 58.322-42.826 65.183-2.587-6.861-15.643-17.733-32.244-17.733z" fill="#FFF"/>
        <circle fill="#000" cx="80" cy="125" r="11"/>
        <circle fill="#000" cx="95" cy="92" r="11"/>
        <circle fill="#000" cx="128" cy="79" r="11"/>
        <circle fill="#000" cx="161" cy="92" r="11"/>
        <circle fill="#000" cx="174" cy="124" r="11"/>
    </g>
</svg>
