<svg width="256" height="256" xmlns="http://www.w3.org/2000/svg">
    <g fill="none" fill-rule="evenodd">
        <path d="M59 61.922c0-9.768 13.016-15.432 22.352-11.615 10.695 7.017 101.643 58.238 109.869 65.076 8.226 6.838 10.585 17.695-.559 25.77-11.143 8.074-99.712 60.203-109.31 64.73-9.6 4.526-21.952-1.632-22.352-13.088-.4-11.456 0-121.106 0-130.873z" stroke="#979797" fill="#000"/>
        <path d="M72.437 70.402c0-3.83 4.793-7.404 7.563-5.023 2.77 2.38 97.488 56.573 100.938 58.861 3.449 2.288 3.694 5.95 0 7.388-3.695 1.437-96.717 56.92-101.217 59.14-4.5 2.22-7.73-1.52-7.5-5.244.14-2.27.216-112.628.216-115.122z" fill="#FFF"/>
    </g>
</svg>
