<svg width="256" height="256" xmlns="http://www.w3.org/2000/svg">
    <g fill-rule="evenodd">
        <path d="M25.389 122.006a3.995 3.995 0 0 1 3.99-4.006h82.616c8.84 0 21.247 4.893 27.704 10.919l4.045 3.774 43.906 34.896c5.187 4.122 14.773 7.464 21.39 7.464h17.493a4.003 4.003 0 0 1 4.008 4.007v8.985a4 4 0 0 1-3.995 4.008h-23.508c-8.835 0-21.565-4.504-28.435-10.062l-47.526-38.446c-5.151-4.167-14.692-7.487-21.33-7.415l-76.36.827a3.947 3.947 0 0 1-3.998-3.963v-10.988z"/>
        <path d="M25.389 133.047a3.995 3.995 0 0 0 3.99 4.006h82.616c8.84 0 21.247-4.893 27.704-10.92l4.045-3.774 43.906-34.896C192.837 83.341 202.423 80 209.04 80h17.493a4.003 4.003 0 0 0 4.008-4.007v-8.986A4 4 0 0 0 226.546 63h-23.508c-8.835 0-21.565 4.504-28.435 10.062l-47.526 38.446c-5.151 4.167-14.692 7.487-21.33 7.415l-76.36-.827a3.947 3.947 0 0 0-3.998 3.963v10.988z"/>
    </g>
</svg>
