<svg width="256" height="256" xmlns="http://www.w3.org/2000/svg">
    <g fill="none" fill-rule="evenodd">
        <path d="M46.677 64.652c0-9.362 7.132-17.387 16.447-17.394 9.315-.007 24.677.007 34.55.007 9.875 0 17.138 7.594 17.138 16.998 0 9.403-.083 119.094-.083 127.82 0 8.726-7.58 16.895-16.554 16.837-8.975-.058-25.349.115-34.963.058-9.614-.058-16.646-7.74-16.646-17.254 0-9.515.11-117.71.11-127.072zm91.423.025c.027-9.804 7.518-17.541 17.125-17.689 9.606-.147 25.283.148 35.004.148 9.72 0 17.397 8.52 17.397 17.77s-.178 117.809-.178 127c0 9.192-7.664 17.12-16.323 17.072-8.66-.05-26.354 0-34.991.048-8.638.05-17.98-8.582-18.007-17.783-.027-9.201-.055-116.763-.027-126.566z" fill="#000"/>
        <path d="M61.436 65.47l4.997-4.056s23.009-.395 25.796 0c2.786.396 7.085.918 7.085 4.66s.163 118.766.082 123.248c-.082 4.483-4.22 6.142-7.167 6.142-2.948 0-21.044.047-24.402-.47-3.357-.518-6.48-.286-6.48-5.833 0-5.547.089-123.691.089-123.691zm93.581-.239l4.997-4.055s23.01-.396 25.796 0c2.787.395 7.086.918 7.086 4.66s.162 118.766.081 123.248c-.08 4.482-4.22 6.142-7.167 6.142s-21.043.047-24.401-.471c-3.358-.518-6.48-.285-6.48-5.832s.088-123.692.088-123.692z" fill="#FFF"/>
    </g>
</svg>
