<svg width="256" height="256" xmlns="http://www.w3.org/2000/svg">
    <g fill="none" fill-rule="evenodd">
        <path d="M117.027 60.858c0-14.183-8.718-16.43-13.893-10.454-5.176 5.977-47.925 60.873-52.46 68.201-4.536 7.329-5.435 13.082-.086 20.28 5.348 7.198 45.27 61.462 52.014 67.2 6.745 5.74 14.543 3.358 14.543-10.567 0-13.926-.118-120.476-.118-134.66zm91 0c0-14.183-8.718-16.43-13.893-10.454-5.176 5.977-47.925 60.873-52.46 68.201-4.536 7.329-5.435 13.082-.086 20.28 5.348 7.198 45.27 61.462 52.014 67.2 6.745 5.74 14.543 3.358 14.543-10.567 0-13.926-.118-120.476-.118-134.66z" fill="#000"/>
        <path d="M65.424 132.65c-1.339-1.758-1.356-4.612-.029-6.388l32.927-44.057c1.323-1.77 2.395-1.405 2.395.792l.005 92.006c0 2.207-1.088 2.568-2.424.814L65.424 132.65zm91 0c-1.339-1.758-1.356-4.612-.029-6.388l32.927-44.057c1.323-1.77 2.395-1.405 2.395.792l.005 92.006c0 2.207-1.088 2.568-2.424.814l-32.874-43.167z" fill="#FFF"/>
    </g>
</svg>
