<svg width="256" height="256" xmlns="http://www.w3.org/2000/svg">
    <path fill-rule="evenodd" clip-rule="evenodd" d="M231 128c0 8.667-1.71 16.95-5.13 24.85-3.42 7.9-7.996 14.7-13.73 20.4-5.733 5.7-12.573 10.25-20.52 13.65-7.946 3.4-16.278 5.1-24.995 5.1h-77.25c-8.717 0-17.05-1.7-24.996-5.1-7.946-3.4-14.786-7.95-20.52-13.65-5.733-5.7-10.31-12.5-13.73-20.4C26.71 144.95 25 136.667 25 128c0-8.667 1.71-16.95 5.13-24.85 3.42-7.9 7.996-14.7 13.73-20.4 5.733-5.7 12.573-10.25 20.52-13.65 7.946-3.4 16.278-5.1 24.995-5.1h77.25c8.717 0 17.05 1.7 24.996 5.1 7.946 3.4 14.786 7.95 20.52 13.65 5.733 5.7 10.31 12.5 13.73 20.4C229.29 111.05 231 119.333 231 128zm-18 .064c0-6.508-1.36-12.72-4.08-18.634-2.72-5.914-6.397-11.03-11.032-15.349-4.634-4.318-10.125-7.744-16.472-10.279C175.07 81.267 168.404 80 161.42 80h-31.47c5.44 3.802 16.472 16.147 19.947 23.281 3.476 7.135 5.642 17.96 5.642 24.468 0 .783.022 1.578.044 2.398.166 5.999.367 13.327-7.701 26.831-5.639 9.439-13.944 16.357-17.909 19.15h-.628c-2.637 1.88-1.855 1.748.628 0h31.447c6.985 0 13.65-1.267 19.997-3.801 6.347-2.535 11.838-5.962 16.472-10.28 4.635-4.318 8.312-9.434 11.032-15.348a44.085 44.085 0 0 0 4.08-18.635H213zm-78.797-18.674C136.734 115.297 138 121.5 138 128s-1.266 12.703-3.797 18.609c-2.531 5.907-5.953 11.016-10.265 15.328-4.313 4.313-9.422 7.735-15.328 10.266C102.703 174.734 96.5 176 90 176s-12.703-1.266-18.609-3.797c-5.907-2.531-11.016-5.953-15.328-10.266-4.313-4.312-7.735-9.421-10.266-15.327C43.266 140.703 42 134.5 42 128s1.266-12.703 3.797-18.609c2.531-5.907 5.953-11.016 10.265-15.328 4.313-4.313 9.422-7.735 15.328-10.266C77.297 81.266 83.5 80 90 80s12.703 1.266 18.609 3.797c5.907 2.531 11.016 5.953 15.328 10.265 4.313 4.313 7.735 9.422 10.266 15.328z"/>
</svg>
