<svg width="256" height="256" xmlns="http://www.w3.org/2000/svg">
    <g>
        <path d="m 128.01172,64.105469 c -6.85675,0.0026 -13.7115,3.566453 -18.9375,10.689453 L 66.716797,112.07422 c -5.360698,3.36001 -11.367725,7.18731 -17.189453,7.03125 H 32.039062 L 29.009766,119 C 26.860373,119.36668 25.046831,121.35086 25,123.10156 v 9.90235 c 0.620746,2.57107 1.897627,3.65148 4.009766,4.10156 L 32.039062,137 h 17.488282 c 5.908069,0.48387 13.042643,3.49482 17.189453,7.03125 l 42.357423,37.2793 c 10.452,14.246 27.41662,14.25362 37.89062,0.0156 l 42.48243,-36.41797 c 5.028,-4.31 14.47146,-7.80273 21.10546,-7.80273 5.48512,0.29307 10.97015,0.59538 16.45508,0.89455 2.208,0 3.99219,-2.78909 3.99219,-4.99609 0,-3.30078 0,-6.60157 0,-9.90235 0,-2.207 -1.78419,-4.99609 -3.99219,-4.99609 -5.48512,0.29564 -10.9698,0.60464 -16.45509,0.89453 -6.634,0 -16.07746,-3.49469 -21.10546,-7.80469 L 146.96484,74.779297 c -5.237,-7.1185 -12.09637,-10.676453 -18.95312,-10.673828 z m 0.21094,18.701172 c 3.14262,-0.0046 6.2879,1.135922 8.6914,3.419921 l 41.82422,38.753908 c 1.1099,1.05478 2.40672,2.08451 3.82422,3.07226 -1.41741,0.98767 -2.71438,2.01559 -3.82422,3.07032 l -41.82422,39.75586 c -4.807,4.569 -12.57714,4.55975 -17.36914,-0.0312 L 77.074219,130.17188 c -0.757131,-0.72521 -1.604386,-1.43285 -2.513672,-2.11915 0.909263,-0.68636 1.756541,-1.39381 2.513672,-2.11914 L 119.54492,86.257812 c 2.396,-2.295499 5.53511,-3.446546 8.67774,-3.451171 z"/>
    </g>
</svg>
