<svg width="256" height="256" xmlns="http://www.w3.org/2000/svg">
    <path fill-rule="evenodd" clip-rule="evenodd" d="M223.977 63.69a5.967 5.967 0 0 0-2.295-.446l.001-.001-188.877.77a6.013 6.013 0 0 0-5.984 6.024l.226 98.86c.008 3.314 2.699 6.015 6.01 6.034l15.326.087v10.633c0 3.315 2.683 6.007 5.993 6.007h25.471s6.319-15.38 23.62-15.38c17.301 0 23.783 15.38 23.783 15.38h74.032a6.003 6.003 0 0 0 5.999-6.008v-8.16h14.388a6.004 6.004 0 0 0 6.01-6.003V69.222a5.976 5.976 0 0 0-1.755-4.237 5.978 5.978 0 0 0-1.948-1.294zM42.588 80.586A2.002 2.002 0 0 1 44.002 80v.001h44A1.995 1.995 0 0 1 90 82.002l-.13 69.985s-4.127.137-7.667 2.48S77.76 160 77.76 160H42V81.997c.001-.53.213-1.038.588-1.412zm62.001-.001a2.001 2.001 0 0 1 1.413-.584h44a1.999 1.999 0 0 1 1.847 1.232c.1.243.151.503.151.765l-.141 76.006a2.01 2.01 0 0 1-2.013 1.997h-20.189s-4.827-4.457-10.622-6.472c-5.795-2.014-15.035-2.447-15.035-2.447V81.994c.002-.53.214-1.037.589-1.41zm61.999 0a2.002 2.002 0 0 1 1.414-.584h44a1.999 1.999 0 0 1 1.847 1.232c.1.243.151.503.151.765l-.141 76.006A2.004 2.004 0 0 1 211.86 160H166V81.997c.001-.53.213-1.038.588-1.412z"/>
</svg>
