<svg width="256" height="256" xmlns="http://www.w3.org/2000/svg">
    <g fill="none" fill-rule="evenodd">
        <path d="M47.81 91.725c0 8.327 0 93.035-.344 101.906-.345 8.871 7.119 15.987 15.207 15.987 8.088 0 92.851-.542 101.205-.542 8.353 0 15.474-8.893 15.474-15.016 0-6.123-.323-16.093-.323-16.093s5.949.199 14.727.1c8.778-.1 15.858-7.271 15.858-15.164 0-7.892.054-93.105.054-101.699 0-8.594-6.76-13.937-15.256-14.567-8.495-.63-92.262-.37-101.297-.37-9.035 0-15.262 7.086-15.262 14.165 0 7.079.388 15.978.388 15.978s-5.834-.031-14.863-.015c-9.03.015-15.567 7.002-15.567 15.33z" fill="#000"/>
        <path d="M93.87 63.238a1.99 1.99 0 0 1 2.01-1.988l95.4.326a2.011 2.011 0 0 1 2.01 2.007l.064 97.283c0 1.105-.89 2.005-1.998 2.01l-95.555.51c-1.105.006-2-.888-1.999-1.984l.069-98.164z" fill="#FFF"/>
        <path d="M63.267 95.795a4.025 4.025 0 0 1 3.97-4.067l9.027-.13a1.946 1.946 0 0 1 1.976 1.975s-.588 59.99-.588 68.7 7.261 16.45 15.438 16.45 71.054-.578 71.054-.578l.137 11.137a3.976 3.976 0 0 1-3.953 4.026l-94.126.715a2.007 2.007 0 0 1-2.019-1.982l-.916-96.246z" fill="#FFF"/>
    </g>
</svg>
