<svg width="256" height="256" xmlns="http://www.w3.org/2000/svg">
    <g fill="none" fill-rule="evenodd">
        <path d="M109.46 97l44.708 44.47c1.96 1.95 5.792 3.387 8.545 3.21l6.667-.425c2.204-.14 4.856 1.319 5.918 3.25l33.82 61.458h-9.974l-100.55-101.06L109.46 97z" fill="#000"/>
        <path d="M108.46 158.963l44.708-44.47c1.96-1.95 5.792-3.387 8.545-3.211l6.667.426c2.204.14 4.856-1.319 5.918-3.25L208.118 47h-9.974L97.594 148.06l10.866 10.903z" fill="#000"/>
        <circle fill="#000" cx="81.575" cy="81.575" r="33.575"/>
        <ellipse fill="#000" cx="81.575" cy="176.425" rx="33.575" ry="33.575"/>
        <ellipse fill="#FFF" cx="81.601" cy="177.377" rx="17.601" ry="17.623"/>
        <ellipse fill="#FFF" cx="81.601" cy="82.377" rx="17.601" ry="17.623"/>
    </g>
</svg>
