<svg width="256" height="256" xmlns="http://www.w3.org/2000/svg">
    <path fill-rule="evenodd" clip-rule="evenodd" d="M128 231c-8.667 0-16.95-1.71-24.85-5.13-7.9-3.42-14.7-7.996-20.4-13.73-5.7-5.733-10.25-12.573-13.65-20.52-3.4-7.946-5.1-16.278-5.1-24.995v-77.25c0-8.717 1.7-17.05 5.1-24.996 3.4-7.946 7.95-14.786 13.65-20.52 5.7-5.733 12.5-10.31 20.4-13.73C111.05 26.71 119.333 25 128 25c8.667 0 16.95 1.71 24.85 5.13 7.9 3.42 14.7 7.996 20.4 13.73 5.7 5.733 10.25 12.573 13.65 20.52 3.4 7.946 5.1 16.278 5.1 24.995v77.25c0 8.717-1.7 17.05-5.1 24.996-3.4 7.946-7.95 14.786-13.65 20.52-5.7 5.733-12.5 10.31-20.4 13.73C144.95 229.29 136.667 231 128 231zm-.064-18c6.508 0 12.72-1.36 18.634-4.08 5.914-2.72 11.03-6.397 15.349-11.032 4.318-4.634 7.744-10.125 10.279-16.472 2.535-6.346 3.802-13.012 3.802-19.997v-31.47c-3.802 5.44-16.147 16.472-23.281 19.947-7.135 3.476-17.96 5.642-24.468 5.642-.783 0-1.578.022-2.398.044-5.999.166-13.327.367-26.831-7.701-9.44-5.639-16.357-13.944-19.15-17.909v-.628c-1.88-2.637-1.748-1.855 0 .628v31.447c0 6.985 1.267 13.65 3.801 19.997 2.535 6.347 5.962 11.838 10.28 16.472 4.318 4.635 9.434 8.312 15.348 11.032a44.085 44.085 0 0 0 18.635 4.08zm18.674-78.797C140.703 136.734 134.5 138 128 138s-12.703-1.266-18.609-3.797c-5.907-2.531-11.016-5.953-15.328-10.265-4.313-4.313-7.735-9.422-10.266-15.328C81.266 102.703 80 96.5 80 90s1.266-12.703 3.797-18.609c2.531-5.907 5.953-11.016 10.265-15.328 4.313-4.313 9.422-7.735 15.328-10.266C115.297 43.266 121.5 42 128 42s12.703 1.266 18.609 3.797c5.907 2.531 11.016 5.953 15.328 10.265 4.313 4.313 7.735 9.422 10.266 15.328C174.734 77.297 176 83.5 176 90s-1.266 12.703-3.797 18.609c-2.531 5.907-5.953 11.016-10.266 15.328-4.312 4.313-9.421 7.735-15.327 10.266z"/>
</svg>
