<svg width="256" height="256" xmlns="http://www.w3.org/2000/svg">
    <g fill="none" fill-rule="evenodd">
        <path d="M25.723 176.132c-.284 8.428 8.144 16.193 17.608 16.193s134.981-1.372 142.361-.813c7.38.559 11.202-2.93 15.074-8.253 3.872-5.322 21.248-31.072 28.111-41.618 6.863-10.546 0-23.97-14.263-24.257-14.262-.287-15.122.099-15.122.099a1.92 1.92 0 0 1-2.11-1.809s-.488-6.715-.488-14.842-7.407-16.647-17.035-16.647-54.282 1.705-54.282 1.705c-1.655.062-3.943-.847-5.107-2.03l-18.488-18.77c-.78-.79-2.298-1.439-3.401-1.447 0 0-45.312-.36-55.15-.172-9.836.187-17.992 7.822-17.992 17.327 0 9.505.567 86.907.284 95.335z" fill="#000"/>
        <path d="M43.729 82.424a2.054 2.054 0 0 1 2.02-2.03l45.114-.504c1.106-.012 2.658.594 3.466 1.354l19.388 18.225c.809.76 2.37 1.362 3.468 1.345 0 0 60.26-1.011 61.818.429 1.56 1.44.386 15.627.386 15.627s-92.629.614-99.33.614c-6.7 0-11.128 3.628-14.479 7.653-3.35 4.024-21.523 33.172-21.523 33.172-.584.934-1.049.797-1.038-.316l.71-75.569z" fill="#FFF"/>
        <path d="M53.06 175.957c-1.109 0-1.517-.746-.908-1.669l26.066-39.518c.607-.92 2.004-1.665 3.101-1.662l132.038.268c1.106.002 1.486.746.855 1.653l-27.435 39.435c-.633.911-2.042 1.648-3.154 1.647l-130.563-.154z" fill="#FFF"/>
    </g>
</svg>
