<svg width="256" height="256" xmlns="http://www.w3.org/2000/svg">
    <g fill="none" fill-rule="evenodd">
        <path d="M131.31 27.08c-5.288-4.567-11.224 3.52-11.224 5.455 0 1.936.306 77.786.306 77.786.005 1.107-.682 1.449-1.545.755 0 0-43.494-34.977-45.684-36.613-2.19-1.636-3.563-1.894-4.817-1.025-1.254.87-3.199 5.3-4.03 7.415-.833 2.115-1.77 4.798-.004 6.382 1.767 1.585 47.081 39.048 47.081 39.048 1.706 1.411 1.714 3.706.022 5.122 0 0-45.024 37.671-46.222 38.744-1.197 1.073-1.783 3.506-1.278 5.746.504 2.24 1.398 5.361 3.118 6.674 1.72 1.312 3.6 2.628 6.66.9 3.06-1.727 44.537-36.473 44.537-36.473.84-.704 1.53-.381 1.54.72 0 0 .63 73.918 1.098 77.73.468 3.81 7.276 6.618 9.445 5.394 2.168-1.225 57.758-46.547 60.01-48.492 2.25-1.945 2.47-10.307-.87-13.162-3.342-2.855-48.584-40.157-48.584-40.157s46.472-38.158 49.453-41.303c2.982-3.146 3.136-8.606.488-11.384-2.648-2.779-54.213-44.695-59.5-49.262z" fill="#000"/>
        <path d="M135.434 53.641c.007-1.106.71-1.427 1.56-.725l32.683 26.999c1.277 1.055 1.268 2.761-.01 3.801l-33.03 26.877c-.856.697-1.545.364-1.538-.742l.335-56.21zm1.453 92.099c-.831-.72-1.51-.407-1.517.7l-.351 59.45c-.007 1.106.662 1.426 1.509.702l33.993-29.091c.84-.72.837-1.894.016-2.606l-33.65-29.155z" fill="#FFF"/>
    </g>
</svg>
