<svg width="256" height="256" xmlns="http://www.w3.org/2000/svg">
    <g fill="none" fill-rule="evenodd">
        <path d="M231 70.623c0-3.53-2.88-6.39-6.428-6.39H31.622c-3.55 0-6.427 2.863-6.427 6.39V185.61c0 3.53 2.88 6.391 6.428 6.391h192.95c3.55 0 6.427-2.863 6.427-6.39V70.622z" fill="#000"/>
        <path d="M216.333 86.005c0-3.316-2.84-6.005-6.354-6.005H46.354C42.844 80 40 82.693 40 86.005v83.99c0 3.316 2.841 6.005 6.354 6.005h163.625c3.51 0 6.354-2.693 6.354-6.005v-83.99z" fill="#FFF"/>
        <path d="M135.764 92.983c0-1.766-1.789-3.197-3.996-3.197h-8.008c-2.207 0-3.996 1.43-3.996 3.197v70.267c0 1.765 1.79 3.197 3.996 3.197h8.008c2.207 0 3.996-1.43 3.996-3.197V92.983zm32.726 0c0-1.766-1.789-3.197-3.996-3.197h-8.008c-2.207 0-3.996 1.43-3.996 3.197v70.267c0 1.765 1.789 3.197 3.996 3.197h8.008c2.207 0 3.996-1.43 3.996-3.197V92.983zm31.726 0c0-1.766-1.79-3.197-3.997-3.197h-8.007c-2.207 0-3.996 1.43-3.996 3.197v70.267c0 1.765 1.788 3.197 3.996 3.197h8.007c2.207 0 3.997-1.43 3.997-3.197V92.983z" fill="#000"/>
    </g>
</svg>
